# xmcd
#
# Track frame offsets:
# 150
# 16966
# 34640
# 48597
# 61709
# 74751
# 87088
# 101700
# 111477
# 123516
# 139456
# 152256
# 167942
# 181247
# 194111
# 208060
# 218050
# 229537
# 244683
# 262304
#
# Disc length: 3662 seconds
#
#
# Revision: 0
# Processed by: cddbd v1.4PL0 Copyright (c) Steve Scherf et al.
# Submitted via: FreeRIP 2.35 
#
DISCID=2c0e4c14
DTITLE=Alma Latina - Guitarra Espanola
DYEAR=2003
DGENRE=Instrumental
TTITLE0=Cuando Cuando Cuando
TTITLE1=Piensa en mi
TTITLE2=Ay, ay, ay
TTITLE3=Dos Cruses
TTITLE4=Acercate Mas
TTITLE5=Cachito Cachito
TTITLE6=Esta Tarde Vi Llover
TTITLE7=Toda una vida
TTITLE8=Gualdalajara
TTITLE9=Cielito Lindo
TTITLE10=Ojos de Espanola
TTITLE11=Cuando Sali de Cuba
TTITLE12=Ansiedad
TTITLE13=El Reloj
TTITLE14=Si Tu Me Dices Ven
TTITLE15=Besame Mucho
TTITLE16=Nosotros
TTITLE17=El Dia Que Me Quieras
TTITLE18=Alfonsina Y El Mar
TTITLE19=La Mamba
EXTD=
EXTT0=
EXTT1=
EXTT2=
EXTT3=
EXTT4=
EXTT5=
EXTT6=
EXTT7=
EXTT8=
EXTT9=
EXTT10=
EXTT11=
EXTT12=
EXTT13=
EXTT14=
EXTT15=
EXTT16=
EXTT17=
EXTT18=
EXTT19=
PLAYORDER=
